<svg xmlns="http://www.w3.org/2000/svg" xmlns:xlink="http://www.w3.org/1999/xlink" version="1.1" x="0px" y="0px" viewBox="0 0 90 90" enable-background="new 0 0 90 90" xml:space="preserve" height="100px" width="100px">
<g id="Layer_1" display="none">
	
		</g>
<g id="Layer_2" display="none">
	<g display="inline">
		<path d="M45.9,87.6c-2.4,0-5.1-0.6-7.7-2.4c-1.4,0.7-8,3.1-17-3.3c-7.4-2.6-13-8-16.5-15.7C0.1,55.8,0,41.3,4.7,30.3    c6.6-15.8,28.9-14.5,31.5-14.3c0.3,0,0.6,0,0.8,0.1c0,0,0,0,0,0l0,0c0.2,0,0.4,0,0.6,0.1c3.9-7.5-0.3-12.8-0.3-12.9l-0.5-0.6    L42.4,1l0.2,0.4c2,5.2,7.5,12.7,8.5,14c1.3,0,7.1-0.1,13.5,1.3c9.7,2.2,16.2,6.7,19,13.1c2.7,6.2,5.6,14.3,5.1,22.8    c-0.6,8.9-4.8,16.9-13,24.3c-1.4,1.3-2.9,2.5-4.5,3.7c0,0-6.7,7.3-17.2,5C53.2,86,49.9,87.6,45.9,87.6z M38.7,84.3    c6.3,4.5,13.5,1,14.7,0.4c11.4-37.2,7.8-53.7,2.8-61c-3.5-5.1-7.8-5.8-8.5-5.9c-2.3,0.7-4.2,0.9-5.8,0.7    C40.7,20.9,30.9,40.2,38.7,84.3z M21.8,81.1c8.4,5.9,14.5,3.8,15.9,3.2c-4.4-24.7-3.2-41.4-1.4-51.1c1.6-8.6,3.8-13.2,4.6-14.9    c-1.5-0.3-2.6-0.8-3.3-1.2c0,0-0.2,0-0.6-0.1c-12.8,5.3-20.8,13.2-23.8,23.3C7.6,59,20.9,79.7,21.8,81.1z M54.5,84.7    c9.7,2,15.9-4.8,16-4.8c1.7-1.3,3.2-2.5,4.5-3.7c0.8-0.7,1.5-1.4,2.2-2.1c4.9-23.8,3-40.6-5.8-49.8c-8.5-8.9-20.5-7.4-21.5-7.3    c-0.1,0.1-0.3,0.1-0.4,0.2c1.9,0.6,5,2.1,7.6,6C62.2,30.5,65.9,47.3,54.5,84.7z M33.1,16.8c-6.8,0-22.3,1.4-27.5,13.8    c-4.5,10.8-4.5,25,0.1,35.2c3.1,6.9,8.1,12,14.6,14.6c-3-4.9-13-23.4-7.9-40.4c3-10,10.6-17.8,22.6-23.2    C34.4,16.8,33.8,16.8,33.1,16.8z M62.2,17.3c3.3,1.1,6.9,3,9.9,6.3c8.8,9.3,11,25.8,6.4,49.1c13.4-14.5,10-28.9,4.2-42.5    C79.2,22,69.8,18.7,62.2,17.3z M38.5,16.4c1.7,0.9,5.7,2.3,11.6-0.7c-1.4-1.8-6.2-8.5-8.3-13.5l-3.5,1    C39.4,4.9,41.8,9.9,38.5,16.4z"/>
	</g>
</g>
<g id="Layer_3" display="none">
	<path display="inline" d="M51,16.1c6.4-1.8,21.7,4.6,21.7,4.6c23.6,15,18.1,39.8,5.7,54.2s-24,10.7-24,10.7   c-8.4,4.7-15.9-0.4-15.9-0.4c-7.6,4.6-17.7-3.9-17.7-3.9C2.4,79.3-2.9,47.6,5.1,30.7s33.1-14.3,33.1-14.3c4.3-6.5-0.3-13-0.3-13   l5.5-1.8C44.5,7.3,51,16.1,51,16.1z M41.7,50.4l-2.9,7.3c-0.7,1.7,0.1,2,1.8,2.5c5.2,1.7,7.9,1.2,9.8,0.3c2-1,3.3-1.6,2-3.5   l-4.8-7.2C46.1,47.5,42.7,47.9,41.7,50.4z M27.8,30.7L20.9,41c-0.9,1.4-0.4,3.3,1.2,3.9c3.2,1.3,8.6,2.6,13.3,0   c1.1-0.6,1.6-2.1,1.1-3.3l-4.2-10.4C31.7,29.2,29,29,27.8,30.7z M47.6,75.5l0.8-6.4l7.6,1.5l0.3,4.9c26.9-3.6,28.6-21.5,28.6-21.5   C68.2,71.8,34.5,64.7,34.5,64.7v5.1h-5.8l-3.5-5.6C10.6,61.5,5.9,53.9,5.9,53.9C13.9,78.1,47.6,75.5,47.6,75.5z M57.6,31.2   l-4.2,10.4c-0.5,1.2,0,2.6,1.1,3.3c4.7,2.6,10.1,1.3,13.3,0c1.6-0.6,2.1-2.5,1.2-3.9l-6.9-10.3C61.1,29,58.4,29.2,57.6,31.2z"/>
</g>
<g id="Layer_4">
	<path d="M21.6,64.1l10-34.5l21.5-19l27-3.5l3.8,12.2l-7.3-6.8l-17.5,5.5l-6.4,21.4l10,24.7c0,0,23.3,0.5,22.9,6.7s-69.1,7.4-79,3.4   S6.5,64.5,21.6,64.1z"/>
</g>
</svg>